<svg xmlns="http://www.w3.org/2000/svg" width="44.367" height="43.272" viewBox="0 0 44.367 43.272"><defs><style>.a{fill:#e5e6f0;}</style></defs><path class="a" d="M22.182.2a22.184,22.184,0,0,0-7.012,43.23c1.109.205,1.517-.482,1.517-1.068,0-.53-.022-2.276-.031-4.129-6.172,1.342-7.473-2.617-7.473-2.617a5.878,5.878,0,0,0-2.462-3.247c-2.013-1.378.153-1.348.153-1.348a4.659,4.659,0,0,1,3.4,2.285c1.98,3.391,5.191,2.41,6.455,1.844a4.728,4.728,0,0,1,1.409-2.967C13.209,31.625,8.03,29.723,8.03,21.222a8.592,8.592,0,0,1,2.285-5.953,7.974,7.974,0,0,1,.214-5.87s1.863-.6,6.1,2.274a21.05,21.05,0,0,1,11.108,0C31.973,8.8,33.833,9.4,33.833,9.4a7.97,7.97,0,0,1,.219,5.87,8.565,8.565,0,0,1,2.282,5.953c0,8.521-5.191,10.4-10.129,10.944a5.3,5.3,0,0,1,1.506,4.106c0,2.967-.025,5.357-.025,6.086,0,.591.4,1.281,1.525,1.065A22.185,22.185,0,0,0,22.185.2Z" transform="translate(0 -0.196)"/></svg>