<svg xmlns="http://www.w3.org/2000/svg" width="42.604" height="42.604" viewBox="0 0 42.604 42.604"><defs><style>.a{fill:#e5e6f0;}</style></defs><path class="a" d="M29.912,0H12.692A12.706,12.706,0,0,0,0,12.692v17.22A12.706,12.706,0,0,0,12.692,42.6h17.22A12.706,12.706,0,0,0,42.6,29.912V12.692A12.706,12.706,0,0,0,29.912,0Zm8.406,29.912a8.406,8.406,0,0,1-8.406,8.406H12.692a8.406,8.406,0,0,1-8.406-8.406V12.692a8.406,8.406,0,0,1,8.406-8.406h17.22a8.406,8.406,0,0,1,8.406,8.406v17.22Z"/><path class="a" d="M144.019,133a11.019,11.019,0,1,0,11.019,11.019A11.031,11.031,0,0,0,144.019,133Zm0,17.752a6.733,6.733,0,1,1,6.733-6.733A6.733,6.733,0,0,1,144.019,150.752Z" transform="translate(-122.717 -122.717)"/><ellipse class="a" cx="2.64" cy="2.64" rx="2.64" ry="2.64" transform="translate(29.702 7.725)"/></svg>