<svg xmlns="http://www.w3.org/2000/svg" width="580" height="378.8" viewBox="0 0 580 378.8"><defs><style>.a{fill:#fff;}.b{fill:#e5e6f0;}.c{fill:#5c5c5d;}</style></defs><g transform="translate(-760 -235)"><g transform="translate(753.323 220.247)"><path class="a" d="M298.227,204.7a95.23,95.23,0,0,1-10.666-.335c-.216,6.69,5.079,11.477,11.5,13.163l.173.086c1.686.1,3.361.162,5.014.151l-.584-13.184a.93.93,0,0,1,0-.173C301.858,204.544,300.042,204.673,298.227,204.7Z" transform="translate(22.665 15.3)"/><path class="a" d="M315.2,203.98l27.374,1.167c-.162-1.848-.27-3.739-.313-5.652l-8.646-.205Z" transform="translate(24.895 14.891)"/><path class="a" d="M449.918,274.434c-51.7,0-87.028-16.081-101.844-45.054-9.543,20.306-8.84,45.13-7.738,67.468a.912.912,0,0,1-.108.476c3.772,3.037,6.862,6.97,7.241,11.769a6.775,6.775,0,0,1,0,1.34c.648,0,1.286.076,1.934.086-4.561-7.716-5-17.583-3.631-24.856,1.459-8.3,7.511-22.252,7.759-22.835a1.084,1.084,0,0,1,1.988.865c-.065.14-6.2,14.3-7.619,22.359-1.351,7.122-1.167,21.225,8.019,28.93s54.467,12.644,61.427,11.952c5.955-.605,8.581-3.631,12.2-14.049,1.4-4.053,1.6-7,.584-9.013s-3.242-3.134-6.3-4.128a7.3,7.3,0,0,0-3.458,3.534,12.768,12.768,0,0,1,2.864,1.772,1.081,1.081,0,0,1,.083,1.526l-.008.009a1.1,1.1,0,0,1-1.524.076,15.843,15.843,0,0,0-7.478-2.983c-3-.5-17.021-2.929-23.829-6.03-6.8-1.4-14.849-5.63-17.7-12.255-.508-1.178,1.232-2.161,1.74-1.016,1.729,4.031,5.5,7.046,9.661,9.035-2.324-2.032-4.55-4.744-4.9-8.127s1.275-6.916,4.809-10.45a1.081,1.081,0,1,1,1.642,1.406,1.017,1.017,0,0,1-.118.118c-3.048,3.058-4.463,5.987-4.182,8.71.476,4.615,5.706,8.04,8.213,9.726a36.366,36.366,0,0,0,9.067,3.4c.789-1.243,2.766-3.242,7.565-3.534,6.214-.367,14.795,1.7,18.08,3,2.972.951,6.225,2.237,7.738,5.263,1.286,2.572,1.135,6.063-.475,10.7-.443,1.254-.865,2.432-1.3,3.523l.151-.119c5.122-3.426,13.055-2.594,18.944-2.291a178.062,178.062,0,0,0,27.59-10.548,27.927,27.927,0,0,0,7.565-5.112c5.944-5.814,5.166-13.573,3.9-21.084a1.079,1.079,0,0,1,.9-1.233c.027,0,.054-.008.081-.01h0c3.826-1.081,32.875-6.106,40.58-5.122a54.714,54.714,0,0,0-2.291-15.756C509.086,267.993,482.8,274.456,449.918,274.434Z" transform="translate(26.874 17.319)"/><path class="a" d="M396.38,293.717c4.452,1.081,9.4,2.086,13.692,2.8a23.121,23.121,0,0,1,3.7.919,10.115,10.115,0,0,1,2.81-3.6,50.263,50.263,0,0,0-14.816-2.086C398.66,291.934,397.126,292.928,396.38,293.717Z" transform="translate(31.446 22.351)"/><path class="a" d="M394.448,256.74l-3.318-1.34c12.493,9.6,27.017,11.888,42.817,13.12,12.828.994,26.023,1.146,38.148-2.875a123.19,123.19,0,0,1-20.252,1.61C427.582,267.255,404.952,261,394.448,256.74Z" transform="translate(31.022 19.418)"/><path class="a" d="M516.282,249.51l-1.318.67a187.05,187.05,0,0,1-39.272,14.211A57.844,57.844,0,0,1,460,269.946c23.591-2.161,42.871-8.17,57.277-17.777C516.985,251.282,516.65,250.4,516.282,249.51Z" transform="translate(36.579 18.943)"/><path class="a" d="M510.241,141.395a11.674,11.674,0,0,0-4.409-2.81c-9.953-3.977-27.568,3.372-39.8,8.527l.292.108A78.355,78.355,0,0,1,499.412,170a95.028,95.028,0,0,1,11.38,16.286h0a100.936,100.936,0,0,0,1.567-20.144c0-4.009.151-8.051,0-12.061C512.186,148.354,512.932,144.356,510.241,141.395Z" transform="translate(37.066 9.901)"/><path class="a" d="M372.725,190.984h0c6.581-14.784,18.5-32.864,40.094-42.352l.162-.076c-12.752-4.02-38.159-13.282-42.622-3.523-2.669,5.847-1.589,17.777-1.9,24.3C368.1,176.967,368.727,184.672,372.725,190.984Z" transform="translate(29.186 10.164)"/><path class="a" d="M345.53,217.385a73.5,73.5,0,0,1-1.762-8.818L306.29,207l.421,9.348Z" transform="translate(24.176 15.513)"/><path class="a" d="M397.407,247.555h-.443c-7.187,4.5-15.032,4.031-22.284,1.275,5.4,2.745,11.347,5.133,17.767,7.705l4.539,1.837c13.379,5.4,46.859,14.157,77.81,8.375,14.86-2.237,34.042-9.5,45.594-15.3a52.688,52.688,0,0,0,8.148-4.787,1.842,1.842,0,0,1,.378-.227c1.686-.7,2.28-4.139,2.162-8.9-10.807,6.96-34.074,18.372-51.441,13.12-.875.076-1.772.119-2.669.119a32.086,32.086,0,0,1-29.179-45.389c-5.674-7.251-9.521-7.219-11.272-7.295s-4.928,0-10.483,6.484a30.758,30.758,0,0,1,2.4,11.888A31.07,31.07,0,0,1,397.407,247.555Zm34.031,2.669a.364.364,0,0,0,0-.108,64.942,64.942,0,0,0-6.657-8.127c-.584-.605,0-1.816.875-1.491,4.636,1.675,9.629,3.058,14.157.292,1.016-.616,1.794.875.9,1.545a24.151,24.151,0,0,0-7.208,8.289h0c1.135,2.637,4.236,3.307,7.014,3.08,2-.162,6.949-1.254,6.484-4.107-.162-1.081,1.567-1.61,1.729-.476,1.081,7.057-12.125,8.516-16.21,3.242-1.794,3.069-5.782,3.826-9.3,3.242-3.242-.519-8.019-2.486-7.284-6.484.216-1.135,1.945-.648,1.729.486-.519,2.842,4.323,4.1,6.344,4.323,3.048.367,6.581-.357,7.468-3.7a.189.189,0,0,0-.032-.011Z" transform="translate(29.695 14.792)"/><path class="a" d="M88.263,280.569a.928.928,0,0,0-.681-.411l-6.808-.757a.692.692,0,0,0-.724,1.081l21.495,33.5a.9.9,0,0,0,1.24.267.946.946,0,0,0,.122-.094l3.739-4.085a.647.647,0,0,0,0-.811Z" transform="translate(5.91 21.353)"/><path class="a" d="M346.573,301.954a24.85,24.85,0,0,0-4.053-6.225c-2.669-3.037-6.484-4.863-10.115-6.614-.659-.324-1.329-.616-1.988-.929h-.076a7.857,7.857,0,0,0-4.5-.281c-4.388,1.081-7.165,6.246-7.749,11.38,0,.443-.086.875-.1,1.318a15.66,15.66,0,0,1,6.2,5.847c2.486.411,4.982.746,7.5,1.081,3.426.443,11.391,2.842,14.427.151a3.9,3.9,0,0,0,.4-.443.435.435,0,0,0,0-.076,3.336,3.336,0,0,0,.681-1.8,7.472,7.472,0,0,0-.67-3.361Z" transform="translate(25.121 22.025)"/><path class="a" d="M362.677,241.846c-4.128-3.772-3.512-12.3-1.5-21.009l-8.332-.238a62.75,62.75,0,0,0-4.323,7.176c11.207,23.181,35.663,38.138,71.11,43.325-10.893-2.161-20.89-6.149-29.838-14.265a.831.831,0,0,1-.313-.681c-10.159-4.117-19.053-8.03-26.639-14.2A.609.609,0,0,1,362.677,241.846Z" transform="translate(27.584 16.61)"/><path class="a" d="M126.178,297.75a10.5,10.5,0,0,1-2.7-.67,2.917,2.917,0,0,1-1.081-1.372,7.864,7.864,0,0,1-.281-2.864v-1.351a12.471,12.471,0,0,0-.411-4.388,5.3,5.3,0,0,0-1.481-2.215,5.951,5.951,0,0,0-2-1.081,18.2,18.2,0,0,0-2.453-.583l-3.242-.357h-.195l-.8-.086h0l-5.285-.584a.693.693,0,0,0-.82.534.676.676,0,0,0-.012.082l-.259,7.284a.662.662,0,0,0,.108.4l5.328,8.278c.421.638,1.47.486,1.491-.227l.367-10.148a3.08,3.08,0,0,1,1.762.648,2.631,2.631,0,0,1,.8,1.47,16.452,16.452,0,0,1,0,2.788,10.493,10.493,0,0,0,.411,3.631,4.211,4.211,0,0,0,1.081,1.729,3.559,3.559,0,0,0,.508.411.681.681,0,0,1,0,1.189,3.81,3.81,0,0,0-.67.4,3.994,3.994,0,0,0-1.081,1.61,10.892,10.892,0,0,0-.573,3.642,7.649,7.649,0,0,1-.1,1.578L97.94,281.637a.866.866,0,0,0-.659-.4l-6.679-.746a.681.681,0,0,0-.724,1.027l21.1,32.9a3.244,3.244,0,0,0,.778.778.918.918,0,0,0,.53.238l.843.086a13.5,13.5,0,0,0,5.306-.141,3.933,3.933,0,0,0,2.313-1.848,9.474,9.474,0,0,0,.811-4.053V307.5a6.676,6.676,0,0,1,.508-2.745,2.249,2.249,0,0,1,1.189-1.081,4.925,4.925,0,0,1,2-.184s1.081-3.242,1.621-4.788a.811.811,0,0,0-.649-.944Z" transform="translate(6.705 21.441)"/><path class="a" d="M197.39,365.27h0Z" transform="translate(15.389 28.284)"/><path class="a" d="M78.423,279.479a.929.929,0,0,0-.67-.411l-6.808-.757a.692.692,0,0,0-.735,1.081l21.495,33.5a.908.908,0,0,0,1.257.264.922.922,0,0,0,.1-.08l3.75-4.1a.65.65,0,0,0,0-.811Z" transform="translate(5.116 21.265)"/><path class="a" d="M494.454,273.221c-1.254.281-2.5.616-3.728.983-.357.119-.692.476-.594.648,2.237,3.707,7.749,10.148,11.78,17.486.162.313.508.411.67.194.573-.778,1.221-1.6,1.913-2.453a.5.5,0,0,0,0-.53c-3.177-6.333-7.457-12.115-9.726-16.21A.281.281,0,0,0,494.454,273.221Z" transform="translate(39.009 20.855)"/><path class="a" d="M507.339,293.81c.724-.886,1.513-1.8,2.324-2.745a.551.551,0,0,0,.119-.551c-2.334-6.484-6.636-12.968-9.521-18.1a.335.335,0,0,0-.357-.162c-1.264.162-2.529.357-3.782.605-.357.065-.659.475-.53.713,2.9,5.177,8.321,12.45,11.1,20.09a.367.367,0,0,0,.648.151Z" transform="translate(39.449 20.777)"/><path class="a" d="M505.379,271.8c-1.275.054-2.529.13-3.782.249a.551.551,0,0,0-.454.746c3.48,6.225,8.646,13.854,10.061,21.4a1.52,1.52,0,0,0,.238.529.324.324,0,0,0,.14.13c.324-.854.648-1.7.951-2.529.508-1.426.973-2.875,1.4-4.323-1.859-5.479-5.274-11-8.192-15.994A.4.4,0,0,0,505.379,271.8Z" transform="translate(39.896 20.742)"/><path class="a" d="M513.551,271.93h-.584c-1.081-.065-2.053-.108-3.069-.14a.465.465,0,0,0-.455.474v.023c0,1.718,0,3.437-.054,5.133a.634.634,0,0,0,.065.281c1.081,1.848,2.064,3.728,2.939,5.609a.5.5,0,0,0,.93-.195,53.615,53.615,0,0,0,.465-7.208,1.646,1.646,0,0,1,1.081.4,1.879,1.879,0,0,1,.508,1.016,7.359,7.359,0,0,1,0,1.448c.357-2.161.616-4.323.756-6.484-.249-.054-.476-.13-.735-.173Z" transform="translate(40.565 20.741)"/><path class="a" d="M481.255,290.63l-.216.443c-2.161,3.923-5.868,6.895-9.726,9.024-8.7,4.82-18.5,8.224-28.033,11.077,6.192,3.566,8.051,8.278,7.241,15.8h.238q8.3-.616,16.578-1.578c8.7-.994,18.426-1.643,26.607-5,10.083-4.15,16.578-13.833,20.89-23.689C505.744,292.565,487.815,290.522,481.255,290.63Z" transform="translate(35.23 22.261)"/><path class="a" d="M442.659,310.535l-.638-.292h0a.14.14,0,0,1-.108-.065c-4.582-.259-9.726-.648-14.049.821-4.042,1.383-5.717,3.761-6.808,7.651-.746,2.691-1.426,6,1.8,7.284,3.847,1.535,10.418.638,14.514.562,4.323-.076,8.71-.411,13.044-.9.519-3.912.767-8.408-2.075-11.5A17.079,17.079,0,0,0,442.659,310.535Z" transform="translate(33.387 23.818)"/><path class="a" d="M337.4,39.86a124.728,124.728,0,0,1,27.125-8.927.877.877,0,0,1-.162-.605c.54-5.328-2.95-9.532-7.965-10.947a1.139,1.139,0,0,1-.281-.14,113.177,113.177,0,0,0-27.763,9.878A12.775,12.775,0,0,1,337.4,39.86Z" transform="translate(25.956 0.362)"/><path class="a" d="M234.968,157.209a35.977,35.977,0,0,1,3.123-10.883,38.606,38.606,0,0,1,5.479-8.537,1.058,1.058,0,0,1,0-.378c.551-5.4-7.565-6.916-11.488-6.322a40.917,40.917,0,0,0-6.268,9.726A42.308,42.308,0,0,0,222,158.722a19.778,19.778,0,0,1,5.047-2.1C229.759,155.858,232.58,155.577,234.968,157.209Z" transform="translate(17.375 9.378)"/><path class="a" d="M244.568,136.806a60.358,60.358,0,0,1,10.58-8.527c.443-1.426,1.189-2.756,1.567-4.2.562-2.161.151-6.949-3.026-7.165H253.6l-.886.551c-5.706,3.48-12.212,6.279-17.356,10.591-.789.659-1.545,1.372-2.28,2.1C237.727,130.235,243.8,132.223,244.568,136.806Z" transform="translate(18.269 8.243)"/><path class="a" d="M238.209,176.321a40.537,40.537,0,0,1-3.491-19.128,1.012,1.012,0,0,1-.746-.238c-2.032-1.686-5.058-.919-7.284-.151-.832.292-4.085,1.426-4.561,2.313a1.418,1.418,0,0,1-.119.367c.519,8.84,3.383,17.626,7.392,25.742a11.957,11.957,0,0,1,2.658-5.793A9.049,9.049,0,0,1,238.209,176.321Z" transform="translate(17.376 11.393)"/><path class="a" d="M257.012,121.356c.627,2.5-.086,4.528-.865,6.668,8.883-5.4,18.631-9.986,26.5-16.772h0a1.068,1.068,0,0,1,.1-.292c2.248-3.836,1.005-13.184-5.166-11.78a.819.819,0,0,1-.324,0,30.316,30.316,0,0,1-2.94,3.112,136.115,136.115,0,0,1-20.274,14.719A6.939,6.939,0,0,1,257.012,121.356Z" transform="translate(19.96 6.801)"/><path class="a" d="M364.3,209.449l-21.441-.919a73.114,73.114,0,0,0,1.826,8.786l17.637.486Z" transform="translate(27.127 15.636)"/><path class="a" d="M283.916,109.626c3.426-4.323,4.982-9.488,6.906-14.946,1.513-4.323,3.167-8.494,4.993-12.633-1.675-4.161-6.365-3.966-10.137-3-.475,1.21-.962,2.41-1.427,3.588-2.388,5.933-4.009,11.25-7.251,16.027C282.09,98.765,284.478,104.623,283.916,109.626Z" transform="translate(21.813 5.141)"/><path class="a" d="M311.679,57.826c.5-.54.994-1.081,1.5-1.6,6.635-6.722,14.557-11.261,22.911-15.5.594-.3,1.2-.584,1.794-.875a1.085,1.085,0,0,1-.205-.5,10.808,10.808,0,0,0-9.888-9.6A99.25,99.25,0,0,0,300.58,51.774C304.978,51.8,310.76,53.568,311.679,57.826Z" transform="translate(23.716 1.211)"/><path class="a" d="M257.485,196.367a61.281,61.281,0,0,1-5.176-3.372,45.455,45.455,0,0,1-13.714-15.962c-2.161-1.708-5.847,1.967-6.733,3.566a8.139,8.139,0,0,0-.746,7.068.882.882,0,0,1,0,.573c1.264,2.226,2.594,4.4,3.988,6.484,5.749,8.646,14.3,14.049,23.775,17.561a11.233,11.233,0,0,1-1.686-2.961C256.015,205.769,255.637,199.911,257.485,196.367Z" transform="translate(18.071 13.059)"/><path class="a" d="M267.1,251.553c-2.248,4.874-4.323,9.813-6.279,14.827h0c-.13.357-.281.7-.411,1.081-3.166,8.462-7.619,19.561-6.052,28.822,1.081,6.571,9.478,8.192,16.48,8.57h.368l1.491.054h.389c5.468,0,11.412-.367,17.151-.724l1.967-.119c.919-.054,2.107-.184,3.48-.324a112.227,112.227,0,0,1,11.509-.746,36.732,36.732,0,0,1,14.049,2.323c.5-6.1,3.966-12.147,9.24-13.6a88.3,88.3,0,0,0-19.863-4.993.833.833,0,0,1-.173-.065.789.789,0,0,1-.845-.728.778.778,0,0,1,.013-.212c1.081-8.03-.281-17.864-4.95-24.672-5.663-8.246-15.389-12.093-24.326-15.605-1.189-.465-.67-2.41.53-1.945,9.024,3.545,18.588,7.37,24.64,15.324,5.4,7.035,7.143,17.291,6.2,26.055a91.124,91.124,0,0,1,24.737,7.154h.076l.281.119c.681.313,1.351.659,2.021.983-3.5-23.57-1.729-51.409,10.688-72.633l-40.58-1.081a2,2,0,0,1-1.567-.811,142.669,142.669,0,0,1-17.626-1.254,44.4,44.4,0,0,0-6.009,5.22c-.216.216-.432.443-.638.681-.616.67-1.221,1.351-1.8,2.064-5.09,6.322-8.429,14.049-11.888,21.355Q268.219,249.132,267.1,251.553Z" transform="translate(19.959 16.349)"/><path class="a" d="M263.763,324.746V324L201.8,361.176l-2.421,1.448a1.951,1.951,0,0,1-.875.259l.184.821,3.112-1.87Z" transform="translate(15.479 24.954)"/><path class="a" d="M259.525,322.989l-56.942-5.911L188.74,315.64l9.683,44.017,4.161-2.5Z" transform="translate(14.691 24.279)"/><path class="a" d="M364.029,30.534a.763.763,0,0,1-.076.238,132.29,132.29,0,0,1,20.263-2.323c3.048-.119,6.149-.119,9.262,0,1.394-3.08,2.313-8.84-.778-11.153h0a126.608,126.608,0,0,0-35.349,1.491A11.887,11.887,0,0,1,364.029,30.534Z" transform="translate(28.296 0.156)"/><path class="a" d="M249.186,324.727l13.541,1.4a2.169,2.169,0,0,1,.746.249,2.02,2.02,0,0,1,1.643,1.081c5.4.713,11.888,1.47,19.388,2.248,3.242.313,6.419.551,9.38.724a15.843,15.843,0,0,1-5.079-15.973c1.081-3.685,3.9-6.711,5.987-8.537h-.335l-1.956.13c-5.793.357-11.79.724-17.356.724-2.831,0-5.317-.086-7.565-.281-12.352-1.081-19.161-5.339-20.814-13.141l-.054-.562c-.692-7.867-1.4-15.994,13.174-29.784,2.313-6.009,4.885-12.006,7.64-17.821.465-.962.919-1.934,1.373-2.907,1.178-2.529,2.388-5.112,3.674-7.651-16.524,12.774-33.415,28.152-41.066,48.793-4.258,11.444-4.009,22.219.681,29.578,4.042,6.322,10.753,9.661,15.681,11.337A8.335,8.335,0,0,0,249.186,324.727Z" transform="translate(17.898 17.742)"/><path class="a" d="M295.744,217.782c-4.615-2.745-7.824-7.284-7.565-12.9a81.393,81.393,0,0,1-31.07-9.089c-1.275,2.68-1.081,7.63-.389,10.169a9.519,9.519,0,0,0,6.041,6.625,148.834,148.834,0,0,0,24.856,4.323C290.265,217.155,292.978,217.49,295.744,217.782Z" transform="translate(20.133 14.608)"/><path class="a" d="M292.687,79.074a5.642,5.642,0,0,1,3.469,2.734c.886-1.9,1.794-3.793,2.777-5.652a95.838,95.838,0,0,1,12.093-18.08,1.065,1.065,0,0,1,0-.421c.346-4.679-7.338-6.138-10.861-5.576h-.108c-6.2,7.684-10.418,17.518-14.157,26.855A14.876,14.876,0,0,1,292.687,79.074Z" transform="translate(22.531 3.003)"/><path class="a" d="M426.57,99.18a12.669,12.669,0,0,0-1.21,4.193,55.171,55.171,0,0,0,21.689,4.744c6.484,0,12.3-1.286,18.426-2.648l2.107-.454a11.225,11.225,0,0,0-1.146-4.885,66.027,66.027,0,0,1-17,2.1A90.564,90.564,0,0,1,426.57,99.18Z" transform="translate(33.784 6.813)"/><path class="a" d="M392.756,28.47c10.44.573,20.987,2.669,30.205,7.381a.976.976,0,0,1,.184-.3,8.646,8.646,0,0,0,1.221-10.666,2.417,2.417,0,0,1-.086-.259c-9.467-3.674-20.058-5.566-29.287-6.852-.767-.108-1.545-.195-2.313-.281C394.485,20.6,394.106,25.109,392.756,28.47Z" transform="translate(31.147 0.221)"/><path class="a" d="M342.435,205.211l24.045,1.081c.4-1.535.962-3.631,1.718-6.138l-26.1-.584C342.154,201.44,342.251,203.352,342.435,205.211Z" transform="translate(27.066 14.913)"/><path class="a" d="M430.05,97.579l1.329.67a89.333,89.333,0,0,0,17.68,1.87,65.712,65.712,0,0,0,13.282-1.275,7.791,7.791,0,0,0,.5-.756c-.875-6.484-4.323-9.726-5.458-10.537H435.637A25.733,25.733,0,0,0,430.05,97.579Z" transform="translate(34.163 5.874)"/><path class="a" d="M453.771,110.633c-7.651,0-15.13-1.686-23.527-5.263-49.625,8.537-87.46,49-88.184,97.716l27.244.616a.771.771,0,0,0,.173,0c.648-1.913,1.394-3.977,2.259-6.149-3.955-5.4-5.792-12.158-5.792-21,0-4.8.454-9.661.886-14.362.173-1.837.346-3.674.5-5.5.1-1.275.108-2.691.119-4.182,0-3.5.054-7.122,1.21-10.126,2.4-6.225,5.479-5.663,10.591-4.744,9.337,1.7,18.75,4.323,27.839,6.916,4.139,1.178,8.419,2.377,12.6,3.469a85.2,85.2,0,0,1,25.753-4.561,93.033,93.033,0,0,1,26.412,3.307c11.888-4.539,24.056-8.159,35.566-11.477,5.62-1.621,12.623-3.631,17,3.242,4.258,6.646,3.577,17.55,3.037,26.315-.151,2.41-.292,4.679-.313,6.6a87.082,87.082,0,0,1-2.388,21.4,100.114,100.114,0,0,1,5.684,13.984h0c.681,2.291,12.428,45.119,2.6,49.95a42.545,42.545,0,0,1-5.468,3.415c.335.81.659,1.621.951,2.442,18.891-13.282,29.017-32.929,29.027-58.022,0-46.934-34.377-86.509-80.846-97.738a1.459,1.459,0,0,1-.627.324l-3.242.713C466.556,109.293,460.612,110.644,453.771,110.633Z" transform="translate(27.063 7.312)"/><path class="a" d="M438.942,52.384a4.1,4.1,0,0,1-1.232.854c1.8,5.533,1.762,11.218,1.762,17.291,0,3.566,0,7.143.162,10.71A24.854,24.854,0,0,0,452.6,74.862c-.054-6.83-.324-13.822-2.161-20.3a51.186,51.186,0,0,0-4.755-11.207,12.365,12.365,0,0,1-2.81,4.625A54.794,54.794,0,0,1,438.942,52.384Z" transform="translate(34.781 2.308)"/><path class="a" d="M439.7,82.572c.065.875.086,1.9.162,2.939H452.6c.141-3.026-.108-6.171-.119-7.359V74.91a26.628,26.628,0,0,1-12.893,5.738C439.622,81.318,439.655,81.967,439.7,82.572Z" transform="translate(34.933 4.854)"/><path class="a" d="M422.33,36.177c.573.313,1.146.638,1.707.973A35.655,35.655,0,0,1,437.1,50.388a23.707,23.707,0,0,1,1.081,2.161,1.078,1.078,0,0,1,.313.108,11.786,11.786,0,0,0,2.161-2.334l1.837-2.075c1.545-1.772,2.972-3.512,2.68-6.03a.958.958,0,0,1,0-.313,44.917,44.917,0,0,0-7.943-9.089A49.115,49.115,0,0,0,424.589,25.1,10.6,10.6,0,0,1,422.33,36.177Z" transform="translate(33.54 0.835)"/><path d="M420.918,250.827c-2.021-.238-6.862-1.491-6.344-4.323.216-1.135-1.513-1.621-1.729-.486-.735,4.02,4.085,5.987,7.284,6.484,3.523.573,7.511-.184,9.3-3.242,4.107,5.241,17.291,3.782,16.21-3.242-.162-1.135-1.891-.648-1.729.475.432,2.853-4.517,3.945-6.484,4.107-2.777.227-5.879-.443-7.014-3.08h0a24.151,24.151,0,0,1,7.208-8.289c.9-.67.119-2.161-.9-1.545-4.528,2.767-9.521,1.383-14.157-.292-.875-.324-1.459.886-.875,1.491a64.926,64.926,0,0,1,6.657,8.127.364.364,0,0,1,0,.108.15.15,0,0,1,0,.076C427.5,250.47,423.966,251.194,420.918,250.827Z" transform="translate(32.768 17.961)"/><path class="a" d="M394.687,169.876a13.28,13.28,0,0,0-8.581,4.485c-2.107,2.345,1.6,5.512,3.7,3.188a8.18,8.18,0,0,1,4.906-2.756,10.591,10.591,0,0,1,3.242.076,15.717,15.717,0,0,0,1.988.195c2.053,2.334,6.084-.411,4.02-2.756S397.692,169.6,394.687,169.876Z" transform="translate(30.566 12.511)"/><path class="a" d="M465.59,177.455c2.291-.713,4.874-1.578,7.305-1.178,2.659.454,4.658,2.41,6.484,4.323,2.161,2.269,5.922-.821,3.761-3.1s-4.744-4.7-7.976-5.663c-3.458-1.027-7.024-.195-10.375.843C461.8,173.586,462.6,178.406,465.59,177.455Z" transform="translate(36.814 12.637)"/><path d="M217.275,391.479l65.014-38.9a2.01,2.01,0,0,0,.973-1.729V348.5c6.138.8,12.828,1.545,18.815,2.161,7.684.713,14.535,1.081,20.371,1.081h0c15.67,0,24.942-2.626,28.357-8.03,2.107-3.35,1.967-7.565-.378-12.968,5.857.973,12.666,2.637,18.545,1.9a6.054,6.054,0,0,0,4.712-2.885c1.081.1,2.1.141,3.145.141a.865.865,0,0,0,.594-.216,23.194,23.194,0,0,0,3.945,4.323c9.1,7.64,49.993,12.514,61.178,12.514a15.106,15.106,0,0,0,1.859-.065,12.119,12.119,0,0,0,7.651-3.339,17.592,17.592,0,0,0-.378,4.182c.173,4.733,4.377,4.571,8.192,4.809a136.659,136.659,0,0,0,24.607-.724h.216q11.271-.811,22.5-2.237c9.089-1.167,19.334-1.945,27.266-6.96,10.948-6.916,17.161-19.56,20.965-31.524,4.042-12.687,4.863-26.077.9-38.635,19.744-13.628,30.346-33.966,30.357-60.054,0-47.831-34.96-88.174-82.251-99.661a14.362,14.362,0,0,0-2.086-7.857,1.479,1.479,0,0,0-1.718-.692l-.54.14c-1.135-9.24-6.927-13.044-7.176-13.206a1.561,1.561,0,0,0-.81-.238h-2.777c.821-8.386.27-17.4-.475-25.645-1.524-16.956-12.579-33.134-28.336-39.78A138.123,138.123,0,0,0,418.7,15.2c-23.084-1.978-47.486,2.55-68.019,13.779a.5.5,0,0,0-.184.1,95.213,95.213,0,0,0-29.849,25.191c-8.786,11.39-13.995,26.218-19.053,39.478-1.751,4.582-2.961,8.127-6.376,11.682a82.96,82.96,0,0,1-11.812,9.726,294.638,294.638,0,0,1-25.364,15.724,39.549,39.549,0,0,0-9.661,7.792.787.787,0,0,0-.27.292,42.5,42.5,0,0,0-9.726,19.334c-4.128,19.171,4.625,40.71,16.664,55.429,11.682,14.3,34.4,17.767,51.56,19.636h.259a45.4,45.4,0,0,0-7.792,7.911,1.147,1.147,0,0,1-.086.119l-.367.508-.335.476-3.674,2.745c-18.664,13.952-39.337,30.854-48.285,54.877-2.713,7.284-6.2,21.182.983,32.421a28.844,28.844,0,0,0,9.3,8.9l-39.294-4.085L202.566,335.7,184.043,251.9a2.01,2.01,0,0,0-1.816-1.567L8.842,237a1.944,1.944,0,0,0-1.675.692,2,2,0,0,0-.443,1.74L35.9,373.377a2.021,2.021,0,0,0,1.751,1.578l174.9,18.588h.724a1.991,1.991,0,0,0,1.081-.281Zm-115.342-61.3-3.75,4.1A.908.908,0,0,1,96.9,334.2a.84.84,0,0,1-.08-.1l-21.495-33.5a.691.691,0,0,1,.735-1.081l6.808.757a.929.929,0,0,1,.67.411l18.437,28.628A.649.649,0,0,1,101.932,330.182Zm10.623,1.178-3.739,4.085a.9.9,0,0,1-1.268-.051.936.936,0,0,1-.094-.122L85.917,301.8a.691.691,0,0,1,.724-1.081l6.808.757a.928.928,0,0,1,.681.411l18.48,28.692A.648.648,0,0,1,112.556,331.36Zm21.03-11.207c-.519,1.567-1.578,4.8-1.621,4.787a4.925,4.925,0,0,0-2,.184,2.249,2.249,0,0,0-1.189,1.081,6.676,6.676,0,0,0-.508,2.745v1.978a9.472,9.472,0,0,1-.811,4.053,3.933,3.933,0,0,1-2.313,1.848,13.5,13.5,0,0,1-5.306.141l-.843-.086a.917.917,0,0,1-.53-.238,3.245,3.245,0,0,1-.778-.778L96.583,302.959a.681.681,0,0,1,.724-1.027l6.679.746a.866.866,0,0,1,.659.4l16.675,25.883c0-.432.076-.962.1-1.578a10.893,10.893,0,0,1,.573-3.642,4,4,0,0,1,1.081-1.61,3.812,3.812,0,0,1,.67-.4.681.681,0,0,0,0-1.189,3.562,3.562,0,0,1-.508-.411,4.212,4.212,0,0,1-1.081-1.729,10.493,10.493,0,0,1-.411-3.631,16.452,16.452,0,0,0,0-2.788,2.631,2.631,0,0,0-.8-1.47,3.081,3.081,0,0,0-1.762-.648l-.367,10.148c0,.713-1.081.865-1.491.227l-5.328-8.278a.662.662,0,0,1-.108-.4l.259-7.284a.692.692,0,0,1,.75-.628.73.73,0,0,1,.082.012l5.285.584h0l.8.086h.195l3.242.357a18.2,18.2,0,0,1,2.453.583,5.971,5.971,0,0,1,2,1.081,5.3,5.3,0,0,1,1.481,2.215,12.472,12.472,0,0,1,.411,4.388v1.351a7.864,7.864,0,0,0,.281,2.864,2.916,2.916,0,0,0,1.081,1.372,10.494,10.494,0,0,0,2.7.67.81.81,0,0,1,.684.92Zm238.109,9a.428.428,0,0,1,0,.076,3.878,3.878,0,0,1-.4.443c-3.037,2.691-11,.292-14.427-.151-2.518-.324-5.014-.659-7.5-1.081a15.66,15.66,0,0,0-6.2-5.847,6.022,6.022,0,0,1,.1-1.318c.584-5.133,3.361-10.288,7.749-11.38a7.858,7.858,0,0,1,4.5.281h.076c.659.313,1.329.605,1.988.929,3.588,1.751,7.446,3.577,10.115,6.614a24.85,24.85,0,0,1,4.053,6.225h0a7.471,7.471,0,0,1,.67,3.361A3.337,3.337,0,0,1,371.695,329.155Zm112.068,20.252c-4.323.486-8.646.821-13.044.9-4.1.076-10.666.973-14.514-.562-3.242-1.286-2.55-4.593-1.8-7.284,1.081-3.89,2.767-6.268,6.808-7.651,4.323-1.47,9.467-1.081,14.049-.821a.384.384,0,0,0,.108.065h0l.638.292a17.094,17.094,0,0,1,5.674,3.555c2.853,3.1,2.6,7.6,2.086,11.509Zm45.389-6.776c-8.181,3.361-17.907,4.009-26.607,5q-8.267.961-16.578,1.578h-.238c.811-7.565-1.081-12.233-7.241-15.8,9.532-2.853,19.334-6.257,28.033-11.077,3.836-2.161,7.565-5.1,9.726-9.024l.216-.443c6.56-.108,24.488,1.935,33.6,6.052-4.29,9.878-10.785,19.561-20.868,23.71Zm14.341-32.226a.5.5,0,0,1,0,.53c-.692.854-1.34,1.675-1.913,2.453-.162.216-.508.119-.67-.195-4.031-7.338-9.542-13.779-11.779-17.486-.1-.173.238-.53.594-.648,1.232-.367,2.475-.7,3.728-.983a.281.281,0,0,1,.324.1c2.3,4.117,6.582,9.9,9.759,16.232Zm-7.965-16.772c1.253-.249,2.518-.443,3.782-.605a.335.335,0,0,1,.357.162c2.885,5.177,7.187,11.563,9.521,18.1a.551.551,0,0,1-.119.551c-.81.94-1.6,1.859-2.323,2.745a.367.367,0,0,1-.516.062.362.362,0,0,1-.133-.213c-2.777-7.641-8.2-14.914-11.1-20.09-.086-.238.216-.648.573-.713Zm16.859,19.452c-.3.832-.627,1.675-.951,2.529a.326.326,0,0,1-.14-.13,1.519,1.519,0,0,1-.238-.53c-1.459-7.565-6.581-15.13-10.061-21.4a.552.552,0,0,1,.454-.746c1.254-.119,2.507-.194,3.782-.249a.4.4,0,0,1,.367.205c2.918,4.993,6.333,10.515,8.192,15.994-.389,1.427-.854,2.875-1.362,4.3Zm3.631-13.606a7.378,7.378,0,0,0,0-1.448,1.879,1.879,0,0,0-.508-1.016,1.647,1.647,0,0,0-1.081-.4,53.6,53.6,0,0,1-.465,7.208.5.5,0,0,1-.929.195c-.875-1.881-1.891-3.761-2.94-5.609a.634.634,0,0,1-.065-.281c.076-1.7.1-3.415.054-5.133a.465.465,0,0,1,.431-.5h.023c1.016,0,2.043.076,3.069.141h.583l1.88.151a3.456,3.456,0,0,1,.735.173C556.59,295.168,556.331,297.329,556.017,299.479Zm.875-10.558c-7.705-.983-36.743,4.031-40.58,5.122h0a1.081,1.081,0,0,0-.993,1.162c0,.027.005.054.01.081,1.264,7.565,2.042,15.27-3.9,21.084a27.925,27.925,0,0,1-7.565,5.112,178.05,178.05,0,0,1-27.59,10.548c-5.89-.3-13.822-1.081-18.944,2.291l-.151.119c.432-1.081.854-2.269,1.3-3.523,1.61-4.636,1.762-8.127.475-10.7-1.513-3.026-4.766-4.323-7.738-5.263-3.242-1.308-11.888-3.372-18.08-3-4.755.27-6.733,2.291-7.565,3.534a36.369,36.369,0,0,1-9.067-3.4c-2.507-1.654-7.738-5.079-8.213-9.726-.281-2.723,1.135-5.652,4.182-8.71A1.081,1.081,0,1,0,411.063,292a1.009,1.009,0,0,0-.118.118c-3.534,3.534-5.155,7.046-4.809,10.45s2.572,6.1,4.9,8.127c-4.161-1.989-7.932-5-9.661-9.035-.508-1.189-2.248-.162-1.74,1.016,2.853,6.625,10.9,10.807,17.7,12.255,6.808,3.1,20.825,5.533,23.829,6.03a15.843,15.843,0,0,1,7.478,2.983,1.083,1.083,0,0,0,1.457-1.6l-.009-.008a12.8,12.8,0,0,0-2.875-1.772,7.291,7.291,0,0,1,3.458-3.534c3.048.994,5.285,2.1,6.3,4.128s.821,4.96-.584,9.013c-3.62,10.418-6.246,13.444-12.2,14.049-6.96.692-52.305-4.323-61.427-11.952s-9.37-21.808-8.019-28.93c1.416-8.062,7.565-22.219,7.619-22.36a1.084,1.084,0,0,0-1.988-.865c-.249.584-6.3,14.535-7.759,22.835-1.373,7.273-.929,17.14,3.631,24.856a14.49,14.49,0,0,1-1.934-.086,6.776,6.776,0,0,0,0-1.34c-.378-4.8-3.469-8.732-7.241-11.769a.911.911,0,0,0,.108-.476c-1.081-22.338-1.8-47.161,7.738-67.468,14.816,28.973,50.144,45.011,101.844,45.054,32.885,0,59.168-6.484,77.81-18.588a54.739,54.739,0,0,1,2.28,15.789ZM448.067,316.187a10.117,10.117,0,0,0-2.81,3.6,23.149,23.149,0,0,0-3.7-.919c-4.323-.713-9.24-1.686-13.692-2.8.746-.789,2.28-1.783,5.4-1.967a50.268,50.268,0,0,1,14.751,2.086ZM326.911,233.06c-1.653,0-3.329,0-5.014-.151l-.173-.086c-6.419-1.686-11.715-6.484-11.5-13.163,3.566.281,7.122.4,10.666.335,1.816,0,3.631-.151,5.4-.292a.924.924,0,0,0,0,.173Zm-35.663-18.966c-12.417-3.815-24.24-10.807-31.146-22.046-.53-.854-1.016-1.74-1.481-2.637a.92.92,0,0,0-.281-.616.21.21,0,0,0-.076-.065c-4.625-9.283-5.814-19.982-2.01-29.86,4.906-12.741,16.059-19.669,27.287-26.326,7.878-4.669,17.075-8.862,23.3-15.8,4.2-4.69,5.674-10.591,7.727-16.394a143.036,143.036,0,0,1,10.958-24.424c5.285-9.1,11.985-17.572,20.533-23.775,8.408-6.117,18.674-10.85,28.4-14.276,18.3-6.484,38.592-9.143,57.849-6.268,15.13,2.259,33.026,8.927,38.408,24.8,3.242,9.424,1.221,20.274,1.837,30.065.065,1.081.076,2.453.162,3.934h-3.545a1.478,1.478,0,0,0-1.027.411,27.6,27.6,0,0,0-6.949,12.287l-1.135-.324a1.5,1.5,0,0,0-1.708.605,15.494,15.494,0,0,0-2.259,7.478c-50.122,8.981-88.238,50.047-88.984,99.488l-8.808-.195a3.036,3.036,0,0,0-.54.065l-27.957,7.111c-13.109.5-25.591.735-38.559-3.242Zm76.21,5.944-27.374-1.167,18.372-4.69,8.646.205c.1,1.913.205,3.8.367,5.652Zm.475,4.042A73.5,73.5,0,0,0,369.7,232.9l-38.818-1.081-.421-9.348Zm31.61-68.927c4.463-9.726,29.87-.5,42.622,3.523l-.162.076c-21.614,9.488-33.5,27.568-40.094,42.352h0c-4-6.311-4.625-14.049-4.258-21.689.313-6.484-.767-18.415,1.9-24.262Zm30.929,32.421a15.723,15.723,0,0,1-1.989-.194,10.59,10.59,0,0,0-3.242-.076,8.181,8.181,0,0,0-4.852,2.788c-2.1,2.324-5.8-.843-3.7-3.188a13.28,13.28,0,0,1,8.581-4.485c2.983-.281,7.165.086,9.229,2.432s-1.967,5.058-4.02,2.723Zm-3.383,15.411a28.336,28.336,0,1,1-28.325,28.347v-.022A28.358,28.358,0,0,1,427.1,202.985Zm28.638,16.383c5.555-6.484,8.775-6.56,10.483-6.484s5.6,0,11.272,7.295a32.086,32.086,0,0,0,29.179,45.389,19.9,19.9,0,0,0,2.669-.119c17.367,5.2,40.623-6.16,51.441-13.12.075,4.766-.519,8.2-2.161,8.9a1.84,1.84,0,0,0-.378.227,52.69,52.69,0,0,1-8.148,4.787c-11.553,5.8-30.735,13.066-45.594,15.3-30.962,5.782-64.442-2.95-77.81-8.375l-4.539-1.837c-6.419-2.572-12.363-4.96-17.767-7.705,7.252,2.756,15.13,3.242,22.284-1.275h.443a31.07,31.07,0,0,0,31.038-31.037,30.758,30.758,0,0,0-2.4-11.952Zm93.707-55.375c.13,4.009,0,8.051,0,12.061a100.935,100.935,0,0,1-1.556,20.079h0a95.028,95.028,0,0,0-11.38-16.286,78.354,78.354,0,0,0-33.091-22.781l-.292-.108c12.234-5.155,29.849-12.5,39.8-8.527a11.674,11.674,0,0,1,4.409,2.81c2.669,3.015,1.924,7.014,2.118,12.752Zm-37.511,20.468c3.242.962,5.706,3.242,7.976,5.663s-1.61,5.4-3.761,3.1c-1.783-1.88-3.782-3.836-6.484-4.323-2.432-.4-5.014.465-7.305,1.178-2.994.929-3.793-3.89-.843-4.809,3.4-1.005,6.96-1.837,10.429-.811Zm-5.22,19.571A29.406,29.406,0,1,1,477.3,233.438h0a29.45,29.45,0,0,1,29.416-29.406Zm5.555,79.3a187.062,187.062,0,0,0,39.272-14.211l1.318-.67c.367.886.7,1.772,1.016,2.658-14.438,9.607-33.718,15.659-57.277,17.777a57.824,57.824,0,0,0,15.681-5.555Zm-47.3,4.6c-15.767-1.232-30.324-3.523-42.817-13.12l3.318,1.34c10.5,4.258,33.134,10.515,57.4,10.515a123.183,123.183,0,0,0,20.252-1.61c-12.115,4.02-25.31,3.869-38.138,2.875Zm-47.929-15.13a.832.832,0,0,0,.313.681c8.948,8.116,18.944,12.093,29.838,14.265-35.479-5.187-59.9-20.144-71.109-43.325a62.747,62.747,0,0,1,4.323-7.176l8.332.238c-2.01,8.71-2.626,17.291,1.5,21.009a.626.626,0,0,0,.14.108c7.619,6.128,16.513,10.04,26.671,14.157ZM371.8,233a73.116,73.116,0,0,1-1.826-8.786l21.441.919-1.978,8.354Zm21.733-11.8-24.045-1.081c-.184-1.859-.281-3.772-.335-5.7l26.1.584c-.746,2.518-1.34,4.615-1.707,6.149ZM503.128,114.562a1.458,1.458,0,0,0,.627-.324c46.47,11.228,80.89,50.792,80.847,97.738,0,25.094-10.137,44.741-29.027,58.022-.292-.821-.616-1.632-.951-2.442a42.51,42.51,0,0,0,5.468-3.415c9.823-4.831-1.924-47.659-2.6-49.95h0a100,100,0,0,0-5.684-13.984,87.079,87.079,0,0,0,2.388-21.4c0-1.924.162-4.193.313-6.6.54-8.764,1.221-19.669-3.037-26.315-4.377-6.841-11.38-4.831-17-3.242-11.509,3.318-23.721,6.938-35.566,11.477a93.034,93.034,0,0,0-26.412-3.307,85.2,85.2,0,0,0-25.753,4.561c-4.182-1.081-8.462-2.291-12.6-3.469-9.089-2.561-18.5-5.22-27.839-6.916-5.112-.919-8.192-1.481-10.591,4.744-1.156,3-1.189,6.625-1.21,10.126,0,1.491,0,2.907-.119,4.182-.151,1.826-.324,3.664-.5,5.5-.432,4.7-.9,9.564-.886,14.362,0,8.84,1.837,15.54,5.793,21-.865,2.161-1.61,4.236-2.259,6.149a.773.773,0,0,1-.173,0l-27.244-.616c.724-48.718,38.559-89.179,88.184-97.716,8.4,3.577,15.875,5.263,23.527,5.263,6.841,0,12.785-1.318,19.085-2.713ZM500.21,107a11.226,11.226,0,0,1,1.146,4.885l-2.107.454c-6.128,1.362-11.888,2.658-18.426,2.648a55.172,55.172,0,0,1-21.689-4.744,12.672,12.672,0,0,1,1.21-4.193,90.6,90.6,0,0,0,22.867,3.026,66.028,66.028,0,0,0,17.01-2.129Zm-8.645-13.509c1.081.865,4.582,4.042,5.457,10.537a7.817,7.817,0,0,1-.5.756,65.7,65.7,0,0,1-13.282,1.264,89.331,89.331,0,0,1-17.68-1.87l-1.329-.67a25.719,25.719,0,0,1,5.587-10.04ZM487.415,83.1c0,1.189.259,4.323.119,7.36H474.793c-.076-1.081-.1-2.064-.162-2.939,0-.648-.076-1.3-.108-1.945a26.628,26.628,0,0,0,12.893-5.738Zm-2.161-26.228c1.87,6.484,2.161,13.465,2.161,20.3a24.853,24.853,0,0,1-12.968,6.376c-.151-3.566-.162-7.143-.162-10.71,0-6.03,0-11.715-1.762-17.291a4.1,4.1,0,0,0,1.232-.854,55.034,55.034,0,0,0,3.923-4.442,12.366,12.366,0,0,0,2.81-4.625,51.147,51.147,0,0,1,4.723,11.207ZM470.74,33.683a44.918,44.918,0,0,1,7.943,9.089.953.953,0,0,0,0,.313c.292,2.518-1.135,4.258-2.68,6.03l-1.837,2.075A11.789,11.789,0,0,1,472,53.525a1.078,1.078,0,0,0-.313-.108,23.722,23.722,0,0,0-1.081-2.161,35.656,35.656,0,0,0-13.066-13.238c-.562-.335-1.135-.659-1.708-.973A10.6,10.6,0,0,0,458.063,26,49.118,49.118,0,0,1,470.74,33.683ZM426.1,17.992c9.229,1.286,19.82,3.177,29.287,6.852a2.409,2.409,0,0,0,.086.259,8.645,8.645,0,0,1-1.178,10.666.973.973,0,0,0-.184.3c-9.218-4.712-19.766-6.808-30.205-7.381,1.3-3.361,1.729-7.867-.119-10.98C424.551,17.8,425.329,17.884,426.1,17.992Zm-5.166-.594h0c3.091,2.313,2.161,8.073.778,11.153-3.112-.108-6.214-.108-9.262,0a132.287,132.287,0,0,0-20.263,2.323.765.765,0,0,0,.076-.238,11.887,11.887,0,0,0-6.722-11.8A126.579,126.579,0,0,1,420.931,17.4Zm-38.9,2.161a1.14,1.14,0,0,0,.281.14c5.014,1.416,8.505,5.62,7.965,10.947a.877.877,0,0,0,.162.605,124.727,124.727,0,0,0-27.125,8.927,12.775,12.775,0,0,0-9.045-10.742A113.175,113.175,0,0,1,382.026,19.6ZM351.507,30.971a10.808,10.808,0,0,1,9.888,9.6,1.086,1.086,0,0,0,.205.5c-.594.292-1.2.573-1.794.875-8.354,4.236-16.275,8.775-22.911,15.5-.508.519-1.005,1.081-1.5,1.6-.908-4.258-6.7-6.03-11.1-6.052A99.248,99.248,0,0,1,351.507,30.971Zm-28.919,24.1h.1c3.523-.562,11.207.9,10.861,5.576a1.066,1.066,0,0,0,0,.421,95.793,95.793,0,0,0-12.039,18.091c-.983,1.859-1.891,3.75-2.777,5.652a5.642,5.642,0,0,0-3.469-2.734,14.869,14.869,0,0,0-6.83-.151C312.127,72.588,316.342,62.754,322.588,55.07Zm-16.524,32.7c.465-1.178.951-2.378,1.427-3.588,3.772-.962,8.462-1.156,10.137,3-1.826,4.139-3.48,8.365-4.993,12.633-1.924,5.4-3.48,10.58-6.906,14.946.562-5-1.826-10.807-6.873-10.969C302.055,99.022,303.676,93.705,306.064,87.772ZM294.317,109.04a30.3,30.3,0,0,0,2.939-3.112.82.82,0,0,0,.324,0c6.171-1.4,7.414,7.943,5.166,11.78a1.066,1.066,0,0,0-.1.292h0c-7.867,6.787-17.615,11.315-26.5,16.772.778-2.161,1.491-4.171.865-6.668a6.939,6.939,0,0,0-2.929-4.323A136.1,136.1,0,0,0,294.317,109.04Zm-40.688,27.233c5.144-4.323,11.65-7.111,17.356-10.591l.886-.551h.086c3.177.216,3.588,4.971,3.026,7.165-.378,1.448-1.081,2.777-1.567,4.2a60.358,60.358,0,0,0-10.58,8.527c-.811-4.582-6.841-6.571-11.488-6.679C252.084,137.646,252.84,136.933,253.629,136.273Zm-10.5,13.93a40.916,40.916,0,0,1,6.268-9.726c3.88-.594,12.039.973,11.488,6.322a1.06,1.06,0,0,0,0,.378,38.607,38.607,0,0,0-5.479,8.537,35.985,35.985,0,0,0-3.058,10.872c-2.367-1.632-5.187-1.383-7.943-.584a19.78,19.78,0,0,0-5.047,2.1A42.325,42.325,0,0,1,243.125,150.2Zm-3.75,20.674a1.419,1.419,0,0,0,.119-.367c.475-.886,3.728-2.021,4.56-2.313,2.226-.767,5.252-1.535,7.284.151a1.012,1.012,0,0,0,.746.238,40.541,40.541,0,0,0,3.5,19.128,9.049,9.049,0,0,0-6.149,3.112,11.957,11.957,0,0,0-2.659,5.793C242.8,188.5,239.937,179.717,239.375,170.877Zm13.833,36.862c-1.394-2.1-2.723-4.323-3.988-6.484a.881.881,0,0,0,0-.573,8.139,8.139,0,0,1,.746-7.068c.886-1.6,4.539-5.274,6.733-3.566a45.458,45.458,0,0,0,13.671,16.016,61.3,61.3,0,0,0,5.177,3.372c-1.848,3.545-1.47,9.4-.162,12.968a11.233,11.233,0,0,0,1.686,2.961c-9.521-3.545-18.069-8.948-23.818-17.626Zm29.687,19.452a9.519,9.519,0,0,1-6.041-6.625c-.681-2.54-.886-7.489.389-10.169a81.394,81.394,0,0,0,31.07,9.089c-.3,5.62,2.907,10.159,7.565,12.9-2.767-.292-5.479-.627-8.051-.9a148.831,148.831,0,0,1-24.888-4.3Zm18.372,14.5c.584-.713,1.189-1.394,1.8-2.064.205-.238.421-.465.638-.681a44.4,44.4,0,0,1,6.009-5.22,142.666,142.666,0,0,0,17.626,1.254,2,2,0,0,0,1.567.811l40.58,1.081C357.073,258.1,355.3,285.938,358.8,309.508c-.67-.324-1.34-.67-2.021-.983l-.281-.119h-.076a91.121,91.121,0,0,0-24.737-7.154c.94-8.721-.843-19.02-6.2-26.055-6.052-7.954-15.616-11.78-24.64-15.324-1.2-.465-1.718,1.481-.53,1.945,8.937,3.512,18.663,7.36,24.326,15.605,4.669,6.808,5.987,16.643,4.95,24.672a.79.79,0,0,0,.62.927.775.775,0,0,0,.212.013.833.833,0,0,0,.173.065,88.3,88.3,0,0,1,19.863,4.993c-5.274,1.448-8.743,7.5-9.24,13.6a36.732,36.732,0,0,0-14.049-2.323,111.936,111.936,0,0,0-11.509.746c-1.373.14-2.561.27-3.48.324l-1.967.119c-5.738.357-11.682.724-17.151.724h-.389l-1.491-.054h-.367c-7-.378-15.367-2-16.481-8.57-1.567-9.262,2.885-20.36,6.052-28.822.13-.357.281-.7.411-1.081h0c1.913-5.014,4.031-9.953,6.279-14.827q1.081-2.453,2.291-4.874C292.837,255.776,296.176,248.017,301.266,241.695ZM277.415,286a96.015,96.015,0,0,0-4.647,17.194c-.573,3.674-1.362,8.343.119,11.888A9.579,9.579,0,0,0,275.978,319c-4.625-1.74-7.284-4.539-8.159-8.527v-.27c-.605-6.97-1.178-13.584,9.878-24.856l-.173.454a.278.278,0,0,1-.076.227ZM250,330.7c-4.69-7.36-4.939-18.134-.681-29.579,7.695-20.641,24.586-36.019,41.066-48.793-1.286,2.54-2.5,5.122-3.674,7.651-.454.973-.908,1.945-1.372,2.907-2.756,5.814-5.328,11.812-7.64,17.821-14.579,13.79-13.865,21.916-13.174,29.784l.054.562c1.653,7.8,8.462,12.1,20.814,13.141,2.291.195,4.777.281,7.565.281,5.566,0,11.564-.367,17.356-.724l1.956-.13h.335c-2.086,1.826-4.928,4.852-5.987,8.537a15.842,15.842,0,0,0,5.079,15.973c-2.961-.173-6.1-.411-9.38-.724-7.457-.778-13.963-1.535-19.388-2.248a2.02,2.02,0,0,0-1.643-1.081,2.168,2.168,0,0,0-.746-.249l-13.455-1.362c-.53-.14-1.016-.281-1.4-.411-4.928-1.654-11.639-4.993-15.681-11.315Zm-36.884,53.224-9.726-44.006,13.887,1.47,56.942,5.911-56.942,34.172Zm.865,3.912a1.954,1.954,0,0,0,.875-.259l2.421-1.448,61.967-37.176v.757l-61.967,37.068-3.112,1.87Z" transform="translate(0 0)"/><path class="a" d="M442.17,219.306A29.416,29.416,0,1,0,471.6,189.9h-.022A29.438,29.438,0,0,0,442.17,219.306Zm25.937-20.533a23.678,23.678,0,1,1-23.689,23.667v-.011a23.677,23.677,0,0,1,23.656-23.7h.022Z" transform="translate(35.141 14.133)"/><circle cx="23.678" cy="23.678" r="23.678" transform="translate(479.559 212.862)"/><path class="a" d="M397.825,245.591A28.336,28.336,0,1,0,369.5,217.245v.011A28.369,28.369,0,0,0,397.825,245.591ZM395.3,198.2A22.695,22.695,0,1,1,372.6,220.9,22.695,22.695,0,0,1,395.3,198.2Z" transform="translate(29.277 14.054)"/><circle cx="22.738" cy="22.738" r="22.738" transform="translate(401.835 212.257)"/><path class="b" d="M252.91,354.3a.54.54,0,0,1-.54-.529.53.53,0,0,1,.507-.551h.012l108.361-3.8a.529.529,0,0,1,.561.5v.023a.551.551,0,0,1-.519.562l-108.361,3.8Z" transform="translate(19.825 27.005)"/><path class="b" d="M23.053,210.89a.541.541,0,0,1-.53-.465L13.78,155.407a.562.562,0,0,1,.454-.627.541.541,0,0,1,.616.453h0l8.743,55.029a.551.551,0,0,1-.454.616Z" transform="translate(0.573 11.299)"/><path class="b" d="M169.428,194.535a.5.5,0,0,1-.238-.065.529.529,0,0,1-.206-.72l.023-.037,11.466-22.695a.54.54,0,0,1,.962.486L169.968,194.2A.551.551,0,0,1,169.428,194.535Z" transform="translate(13.092 12.588)"/><path class="b" d="M46.339,77.932a.529.529,0,0,1-.54-.486l-4-42.882a.531.531,0,0,1,.471-.582h.015a.518.518,0,0,1,.58.448l0,.038,3.977,42.882a.541.541,0,0,1-.494.584h-.014Z" transform="translate(2.834 1.551)"/><path class="b" d="M245.91,95.418a.586.586,0,0,1-.27-.065.551.551,0,0,1-.195-.746L271.177,49.92a.54.54,0,0,1,.735-.205.551.551,0,0,1,.194.746L246.375,95.115A.541.541,0,0,1,245.91,95.418Z" transform="translate(19.261 2.816)"/><path class="b" d="M345.13,339.833a.54.54,0,0,1,0-1.081l47.788-3.242a.551.551,0,0,1,.584.5.54.54,0,0,1-.506.573h0l-47.788,3.242Z" transform="translate(27.267 25.882)"/><path class="b" d="M396.42,96.49a.541.541,0,0,1-.378-.162.551.551,0,0,1,0-.767l14.341-14.319a.551.551,0,0,1,.767,0,.541.541,0,0,1,0,.764l0,0L396.809,96.328A.548.548,0,0,1,396.42,96.49Z" transform="translate(31.406 5.352)"/><path class="a" d="M239.587,130.277l-19.561,22.057-9.424-28-8.073-1.653,14.622,43.66,30.627-34.377Z" transform="translate(15.804 8.709)"/><path class="c" d="M239.321,129.207h0l-8.721-1.751-6.906,7.8-3.426-9.964-9.932-2.042h0L201,121.35l15.843,47.172,33.112-37.176Zm-36.668-6.419,8.084,1.653,9.413,28,19.561-22.057,8.192,1.686-30.627,34.377Z" transform="translate(15.68 8.601)"/><path class="c" d="M104.883,112.744,86.609,85.629a3.631,3.631,0,0,0-5.025-.983L54.469,102.909a3.631,3.631,0,0,0-.983,5.025l18.264,27.115a3.631,3.631,0,0,0,5.025.983l27.115-18.264A3.631,3.631,0,0,0,104.883,112.744Zm-38.008-8.829a1.948,1.948,0,1,1-.021.006l.01-.006Zm26.38,9.953a3.242,3.242,0,0,1-4.576-.286,3.19,3.19,0,0,1-.4-.557,6.376,6.376,0,0,1-.8-1.632L86.1,107.221a4.033,4.033,0,0,0-.573-1.167,2.011,2.011,0,0,0-3-.616c-1.394.94-1.643,2.572-.821,4.82l3.242,8.926-3.329,2.237-1.037-2.842a5.683,5.683,0,0,1-2.259,5.4,3.241,3.241,0,0,1-4.939-.908,8.173,8.173,0,0,1-.832-1.621l-2.659-7.219-2.356,1.578L66.454,112.7l5.674-3.847,3.739,10.353a6.818,6.818,0,0,0,.7,1.535.909.909,0,0,0,1.229.373l.046-.027c.3-.119,2.388-1.589,1.816-4.917l-2.486-6.852-2.378,1.6L73.716,107.8l5.09-3.426,1.383,3.393c-.238-2.269.486-5.047,2.237-6.236s4.323-.973,6.052,1.589a9.462,9.462,0,0,1,1.081,2.388l1.362,4.063a5.168,5.168,0,0,0,.465,1.081c.4.594.843.735,1.286.432s.789-1.016.227-3.242l1.643-.378c1.1,3.145.465,5.209-1.3,6.4Z" transform="translate(3.728 5.59)"/><path class="a" d="M68.592,106.448a2.444,2.444,0,1,0-.01.006Z" transform="translate(4.691 7.045)"/><path class="a" d="M91.98,106.526c.562,2.248.216,2.961-.227,3.242s-.886.162-1.286-.432A5.17,5.17,0,0,1,90,108.255l-1.362-4.063A9.463,9.463,0,0,0,87.56,101.8c-1.729-2.561-4.171-2.853-6.052-1.589s-2.475,3.966-2.237,6.236l-1.362-3.426-5.187,3.5,1.081,3.112,2.378-1.6,2.486,6.852c.573,3.329-1.513,4.8-1.816,4.917a.908.908,0,0,1-1.259-.252c-.013-.019-.026-.04-.038-.062a6.821,6.821,0,0,1-.7-1.5l-3.739-10.385-5.652,3.8,1.081,3.112,2.356-1.578,2.659,7.219a8.175,8.175,0,0,0,.832,1.621,3.243,3.243,0,0,0,4.939.908,5.683,5.683,0,0,0,2.237-5.36l1.027,2.8,3.329-2.237-3.242-8.926c-.821-2.248-.573-3.88.821-4.82a2.011,2.011,0,0,1,2.823.34,1.957,1.957,0,0,1,.182.276,4.032,4.032,0,0,1,.573,1.167l1.383,4.171a6.377,6.377,0,0,0,.8,1.632,3.241,3.241,0,0,0,4.971.843c1.762-1.189,2.4-3.242,1.34-6.484Z" transform="translate(4.743 6.837)"/><path class="c" d="M74.982,152.5a.8.8,0,0,1,.14.13l6.171,8.159a.724.724,0,0,1,.086.735l-3.858,9.121,5.911,7.8a.77.77,0,0,1,.1.746l-8.062,19.02a.728.728,0,0,1-.065.13h0a.7.7,0,0,1-.3.227h-.065a.433.433,0,0,1-.13,0l-20.533,2.594a.767.767,0,0,1-.692-.292L35.148,176.515a.667.667,0,0,1-.1-.162.179.179,0,0,1,0-.076.222.222,0,0,1,0-.119v-.076a.438.438,0,0,1,0-.119.386.386,0,0,1,0-.086.367.367,0,0,1,0-.1h0l4.02-9.521a.767.767,0,0,1,.594-.443l10.256-1.3h.389a.356.356,0,0,1,.108.065h.065a.8.8,0,0,1,.13.14l11.563,15.346,3.361-7.932-5.911-7.8a.557.557,0,0,1-.1-.173V163.7a.362.362,0,0,1,0-.108h0l4.031-9.51a.724.724,0,0,1,.594-.454L74.4,152.34h.5Zm4.863,8.84-5.133-6.776L73.3,157.895l-1.945,4.6,5.1,6.765,3.361-7.932Zm2.161,17.669-5.133-6.787-1.924,4.506L69.438,189.6l5.187,6.852Zm-44.849-2.367,17.475,23.084,18.75-2.367L68.2,190.521l-9.726,1.308h-.508a.233.233,0,0,1-.086,0h0l-.076-.076-.054-.065h0L45.663,175.564l-4.96.627-3.588.454Zm3.177-9.4-3.361,7.921,8.537-1.081,3.361-7.921ZM59.6,186.263l1.945-4.593L50.2,166.735l-1.4,3.329-1.913,4.6,11.293,14.924Zm5.209-31.2L61.452,163l8.537-1.081,3.361-7.922Zm5.4,8.332-4.95.627-3.588.454,5.133,6.776,4.95-.627,3.588-.454Zm-2.161,25.634L73,177.444l2.475-5.793-8.527,1.081-3.858,9.121-3.523,8.31Z" transform="translate(2.289 11.102)"/><path class="c" d="M116.332,23.009A24.164,24.164,0,0,0,90.4,62.995a1.221,1.221,0,0,0,1.727-.022,1.236,1.236,0,0,0,.251-.378c.238-.53.983-2.28,1.783-4.139-6.744-1.362-6.3-5.879-6.3-5.879a6.383,6.383,0,0,0-1.081-4.323c-1.4-2.248.746-1.275.746-1.275a5.088,5.088,0,0,1,2.388,3.772c.486,4.247,4.117,4.679,5.62,4.669a5.234,5.234,0,0,1,2.713-2.345c-4.669-2.713-9-6.884-5.274-15.357a9.367,9.367,0,0,1,4.885-4.939,8.721,8.721,0,0,1,2.788-5.749s2.161.216,5.09,4.939a22.771,22.771,0,0,1,5.857,1.686,23.266,23.266,0,0,1,5.22,3.177c5.479-1.005,7.068.411,7.068.411a8.642,8.642,0,0,1-2.356,5.944,9.25,9.25,0,0,1-.335,6.938c-3.728,8.494-9.726,8.094-14.892,6.484a5.752,5.752,0,0,1-.3,4.755c-1.3,2.961-2.367,5.328-2.691,6.063s-.162,1.448,1.081,1.729a24.164,24.164,0,0,0,11.952-46.178ZM88.645,48.427c-.1.086-.281,0-.411-.1a.263.263,0,0,1,0-.421.312.312,0,0,1,.411.1C88.72,48.146,88.753,48.341,88.645,48.427Zm.659,1.448c-.151.054-.335-.086-.411-.3a.368.368,0,0,1,.14-.486.434.434,0,0,1,.411.3A.368.368,0,0,1,89.3,49.875Zm.216,1.567a.446.446,0,0,1-.411-.4c-.043-.249,0-.5.227-.53s.367.151.421.4A.441.441,0,0,1,89.52,51.442Zm.616,1.978c-.184.076-.421-.076-.53-.335s-.065-.54.119-.616.421.065.54.335S90.32,53.42,90.136,53.42Zm1.416,1.2c-.13.151-.411.119-.627-.065a.464.464,0,0,1-.162-.616c.119-.151.411-.119.627.076s.292.486.162.627Zm1.762,1.027c-.065.184-.346.238-.616.13s-.411-.357-.335-.53a.465.465,0,0,1,.616-.14c.27.14.421.378.335.562Zm1.859.724c0,.195-.313.3-.594.238s-.465-.281-.421-.476a.465.465,0,0,1,.594-.227c.281.086.465.292.421.486Z" transform="translate(6.123 0.505)"/><path class="c" d="M270.153,231.538l-7.2-16.286a1.859,1.859,0,0,0-2.453-.94L257.13,215.8l1.891,4.323a2.162,2.162,0,0,1,1.589,3.62l1.826,4.139a2.11,2.11,0,1,1-1.686.681l-1.7-3.847-2.832,7.305a2.334,2.334,0,0,1,.389.605,2.212,2.212,0,1,1-2.064-1.318l2.853-7.381a2.217,2.217,0,0,1-.065-3.134l-1.87-4.225L244.3,221.5a1.869,1.869,0,0,0-.951,2.453l7.2,16.243a1.859,1.859,0,0,0,2.45.952h0l16.21-7.165a1.859,1.859,0,0,0,.951-2.442" transform="translate(19.085 16.09)"/><path class="c" d="M290.47,96.776c.994-1.967.259-3.566-1.794-4.6-.616-.313-1.221-.573-1.513-.7l-2.994,5.976c.346.216.627.357,1.243.67C287.228,99.024,289.249,99.24,290.47,96.776Z" transform="translate(22.391 6.19)"/><path class="c" d="M282.428,76.09,264.24,112.326l37.176,18.664L319.6,94.743Zm16.4,30.508c1.848,2.4,2.032,3.912,1.2,5.566-1.243,2.486-3.793,2.864-6.354,1.589a7.656,7.656,0,0,1-2.842-2.269c-.087-.1-.054-.184,0-.3l1.146-2.28c.076-.151.184-.162.249,0a6.4,6.4,0,0,0,2.658,2.475c1.221.616,1.988.367,2.334-.335s.173-1.232-.983-2.821c-1.675-2.161-2.053-3.685-1.156-5.468,1.005-2,3.4-2.864,6.106-1.5a7.9,7.9,0,0,1,2.561,1.762.39.39,0,0,1,0,.389l-1.081,2.161c-.065.119-.173.162-.3,0a5.786,5.786,0,0,0-2.345-2.042c-1.232-.616-1.956-.205-2.215.3S297.622,104.923,298.833,106.6Zm-20.036-.865,8.354-16.653c.054-.108.313-.076.432,0,1.016.454,2.507,1.156,4.042,1.924,4.323,2.161,4.777,5.4,3.242,8.375-1.978,3.934-5.674,4.193-9.175,2.432-.584-.292-.767-.432-1.189-.638l-2.983,5.944a.183.183,0,0,1-.229.122.192.192,0,0,1-.052-.025l-2.367-1.189a.184.184,0,0,1-.108-.237A.189.189,0,0,1,278.8,105.733Z" transform="translate(20.783 4.949)"/><path class="a" d="M280.185,106.239a.184.184,0,0,0,.256-.045.188.188,0,0,0,.025-.052l2.983-5.944c.421.205.605.346,1.189.638,3.5,1.762,7.2,1.5,9.175-2.432,1.513-3.026,1.027-6.214-3.242-8.375-1.535-.767-3.026-1.47-4.042-1.924-.119-.065-.378-.1-.432,0l-8.354,16.653a.184.184,0,0,0,.045.256.191.191,0,0,0,.052.025Zm7.565-14.492c.292.13.9.389,1.513.7,2.053,1.081,2.788,2.637,1.794,4.6-1.232,2.464-3.242,2.248-5.068,1.34-.616-.313-.9-.454-1.243-.67Z" transform="translate(21.87 5.914)"/><path class="a" d="M298.05,101.713a5.786,5.786,0,0,1,2.345,2.043c.13.13.238.086.3,0l1.081-2.161a.391.391,0,0,0,0-.389,7.888,7.888,0,0,0-2.561-1.816c-2.7-1.362-5.1-.5-6.106,1.5-.9,1.783-.519,3.307,1.156,5.468,1.156,1.589,1.264,2.269.983,2.821s-1.081.951-2.334.335a6.4,6.4,0,0,1-2.659-2.475c-.065-.13-.173-.119-.249,0l-1.146,2.28c-.054.119-.086.205,0,.3a7.665,7.665,0,0,0,2.842,2.269c2.561,1.275,5.112.9,6.354-1.589.832-1.653.648-3.166-1.2-5.566-1.21-1.675-1.3-2.161-1.016-2.756S296.818,101.1,298.05,101.713Z" transform="translate(22.766 6.776)"/><path class="c" d="M215.858,274.94h0c-.81,1.61-2.432,4.269-3.718,6.344L215.6,282.3C215.641,280.57,215.728,276.755,215.858,274.94Z" transform="translate(16.579 20.995)"/><path class="c" d="M205.752,261.65l-10.072,34.1,34.928,10.321,10.072-34.1Zm6.484,22.889-2.442,4.031c-.065.108-.119.13-.27.086l-2.161-.638c-.141,0-.162-.1-.076-.259l8.408-13.26a4.691,4.691,0,0,0,.508-1.167.107.107,0,0,1,.151-.108l3.069.9c.1,0,.13.076.13.195v17.1c0,.119-.054.184-.173.151l-2.421-.713a.177.177,0,0,1-.173-.195l.086-4.744Zm12.893-3.966c0-.119.086-.162.227-.13l2.28.681a.162.162,0,0,1,.143.179.18.18,0,0,1-.013.048l-3.393,11.5c0,.108-.087.162-.227.119l-2.259-.67c-.151,0-.173-.13-.141-.238l3.393-11.488Zm3.772-2.486a1.459,1.459,0,0,1-1.713,1.151,1.477,1.477,0,0,1-.243-.07,1.427,1.427,0,0,1-1.016-1.913,1.549,1.549,0,0,1,2.972.875h0Z" transform="translate(15.251 19.923)"/><path class="a" d="M219.872,290.885l2.259.67c.141,0,.184,0,.227-.119l3.393-11.5a.161.161,0,0,0-.082-.214.18.18,0,0,0-.048-.013l-2.28-.681c-.14,0-.195,0-.227.13h0l-3.393,11.488C219.7,290.766,219.721,290.885,219.872,290.885Z" transform="translate(17.19 21.325)"/><path class="a" d="M216.036,289.986l2.421.713c.119,0,.173,0,.173-.151v-17.1c0-.119,0-.162-.13-.195l-3.069-.9a.126.126,0,0,0-.151.108,4.691,4.691,0,0,1-.508,1.167l-8.408,13.26c-.087.162-.065.216.076.259l2.161.638c.151,0,.205,0,.27-.086l2.442-4.031,4.647,1.372-.086,4.744C215.863,289.9,215.928,289.954,216.036,289.986Zm-3.447-8.494c1.286-2.075,2.907-4.733,3.718-6.344h0c-.13,1.816-.216,5.63-.281,7.36Z" transform="translate(16.109 20.787)"/><path class="a" d="M225.531,275.086a1.473,1.473,0,0,0-1.924,1.081,1.426,1.426,0,0,0,.807,1.849,1.538,1.538,0,0,0,.209.064,1.569,1.569,0,0,0,1.05-2.951Q225.6,275.1,225.531,275.086Z" transform="translate(17.497 21)"/><path class="a" d="M221.372,77.043l-.821-.389c-1.4-.692-2-1.081-1.956-2.161a1.447,1.447,0,0,1,1.6-1.284l.069.009a2.26,2.26,0,0,1,2.075,1.524L225,73.2a4.927,4.927,0,0,0-4.615-2.885c-2.983-.141-4.971,1.686-5.09,4.182-.119,2.723,1.416,4.074,3.782,5.209l.811.4c1.5.735,2.388,1.178,2.334,2.323,0,.962-.962,1.61-2.345,1.545a3.62,3.62,0,0,1-3.242-2.161l-2.788,1.448a6.418,6.418,0,0,0,5.911,3.685c3.177.141,5.609-1.394,5.749-4.4C225.684,79.7,224.149,78.394,221.372,77.043Z" transform="translate(16.717 4.482)"/><path class="a" d="M202.97,82.07Z" transform="translate(15.839 5.432)"/><path class="a" d="M207.831,86.318c2.95.14,5.047-1.34,5.209-4.8l.519-11.39L210.219,70,209.7,81.347c-.076,1.664-.778,2.064-1.88,2.01s-1.578-.865-2.064-1.816L203,83.044A5.156,5.156,0,0,0,207.831,86.318Z" transform="translate(15.842 4.458)"/><path class="c" d="M195.7,54.23,194.08,89.72l35.5,1.621,1.621-35.49Zm8.019,30.086h0l2.788-1.524c.486.951.919,1.762,2.064,1.816s1.8-.346,1.88-2.01l.519-11.347,3.339.151-.519,11.39c-.162,3.458-2.259,4.939-5.209,4.8a5.154,5.154,0,0,1-4.863-3.242Zm17.723,3.869a6.418,6.418,0,0,1-5.911-3.685l2.788-1.448a3.62,3.62,0,0,0,3.242,2.161c1.383.065,2.3-.584,2.345-1.545.054-1.146-.832-1.589-2.334-2.323l-.811-.4c-2.367-1.081-3.9-2.486-3.782-5.209.119-2.5,2.107-4.323,5.09-4.182a4.927,4.927,0,0,1,4.615,2.885l-2.669,1.545a2.258,2.258,0,0,0-2.161-1.47,1.448,1.448,0,0,0-1.649,1.214,1.371,1.371,0,0,0-.015.148c0,.994.551,1.427,1.956,2.161l.821.389c2.777,1.351,4.323,2.659,4.193,5.4-.141,2.961-2.572,4.5-5.749,4.355Z" transform="translate(15.122 3.185)"/><path class="c" d="M177.163,131.271c-2.378-8.44-14.265-12.741-28.033-10.807,9.878.962,17.669,5.706,19.744,13.044,1.34,4.766,0,9.845-3.242,14.438a31.487,31.487,0,0,1-7.641,7.478L174.2,151.3l-4.625-2.821C175.726,143.245,178.763,136.945,177.163,131.271Z" transform="translate(11.495 8.493)"/><path class="c" d="M132.7,144.436c-1.351-4.766-.065-9.845,3.177-14.438a31.332,31.332,0,0,1,7.64-7.478l-16.21,4.128,4.582,2.875c-6.041,5.187-9.089,11.488-7.489,17.161,2.388,8.44,14.265,12.741,28.033,10.807C142.568,156.54,134.809,151.774,132.7,144.436Z" transform="translate(9.465 8.696)"/><path class="c" d="M145.65,143.278a8.15,8.15,0,0,1,.076-3.091c3.674-.584,10.1-1.653,12.547-4.561s2.161-6.668-1.87-7.835-13.6.973-16.275,9.316,3.761,11.823,7.673,11.823,5.76-.4,10.515-4.841l-1.027-.767C150.707,150.054,145.887,145.98,145.65,143.278Zm2.161-10.591c1.232-2.161,2.6-4.074,4.885-3.75s2.442,3.966.843,6.009a8.158,8.158,0,0,1-4.561,3.339,15.028,15.028,0,0,1-3.134.756,20.762,20.762,0,0,1,2-6.354Z" transform="translate(10.717 9.098)"/><path class="c" d="M335.818,91.971a19.181,19.181,0,0,0,6.419,19.323l-2.961-26.5a19.077,19.077,0,0,0-3.458,7.187Zm31.437,6.657a10.039,10.039,0,0,0-.292-5.512c-.562-1.762-1.135-3.242-.756-4.809a3.308,3.308,0,0,1,3.92-2.552h0l.238.076a19.162,19.162,0,0,0-29-3.35c.432.119.843.238,1.2.313,1.945.475,5.014.973,5.014.973a.793.793,0,0,1-.249,1.567s-1.081-.13-2.161-.346l1.87,21.83L354.082,95.6l-.962-8.646c-.994-.3-1.913-.659-1.913-.659a.791.791,0,0,1,.5-1.5s3.015.983,4.842,1.427,5.025.973,5.025.973a.793.793,0,1,1-.249,1.567s-1.081-.13-2.161-.346l1.859,21.614,3.372-5.76a23.262,23.262,0,0,0,2.885-5.674Zm-12.882-.411L344.831,113.1a19.6,19.6,0,0,0,5.079,2.043,19.225,19.225,0,0,0,6.484.443,2.071,2.071,0,0,1-.065-.281l-1.913-17.086Zm18.6-6.668a13.66,13.66,0,0,1-.346,1.945,18.011,18.011,0,0,1-3.037,6.333l-9.726,15.065A19.182,19.182,0,0,0,372.94,91.549ZM359.734,74.788A22.349,22.349,0,1,0,376.16,101.8,22.349,22.349,0,0,0,359.734,74.788ZM349.4,117.216a21.493,21.493,0,1,1,.023.005Z" transform="translate(26.259 4.793)"/><path class="c" d="M128.281,82.2q.519-10.655,10.677-12.677c10.148-2.01,12.968,5.4,18.264,5.609q5.317.259,8.127-5.576-.519,10.666-10.677,12.677c-10.148,2.021-12.968-5.339-18.264-5.6Q131.091,76.356,128.281,82.2ZM118.62,99.958q.519-10.666,10.677-12.677c10.148-2.021,12.968,5.339,18.264,5.6q5.317.28,8.116-5.566-.519,10.655-10.666,12.677c-10.148,2.01-12.968-5.4-18.264-5.609Q121.409,94.122,118.62,99.958Z" transform="translate(9.033 4.392)"/><path class="c" d="M215.56,219.234c-.411-.14-.832-.281-1.264-.4.076-.292.141-.584.195-.865.951-4.615.335-8.343-1.794-9.564s-5.4,0-8.743,2.972c-.324.292-.648.584-.973.9-.216-.205-.432-.411-.648-.594-3.523-3.134-7.068-4.452-9.186-3.242s-2.648,4.679-1.783,9.067q.109.627.292,1.3c-.508.14-.994.292-1.448.454-4.139,1.437-6.787,3.7-6.787,6.041s2.842,4.852,7.154,6.333l1.081.324c-.119.475-.216.94-.3,1.394-.821,4.323-.184,7.727,1.848,8.894s5.62,0,9.056-3.026c.27-.238.54-.486.811-.757a12.746,12.746,0,0,0,1.081.962c3.318,2.864,6.6,4.02,8.646,2.842s2.777-4.885,1.891-9.348c-.076-.346-.151-.692-.238-1.081l.724-.227c4.485-1.481,7.4-3.89,7.4-6.344s-2.734-4.625-6.949-6.073Zm-.973,10.807-.659.205a40.394,40.394,0,0,0-1.978-4.95,39.784,39.784,0,0,0,1.9-4.874c.4.108.789.238,1.156.367,3.62,1.264,5.782,3.1,5.782,4.506s-2.378,3.48-6.246,4.755Zm-1.61,3.242a14.187,14.187,0,0,1,.194,5.155,3.438,3.438,0,0,1-1.286,2.421c-1.232.713-3.869-.205-6.7-2.658-.335-.281-.659-.573-.983-.9a40.189,40.189,0,0,0,3.242-4.15,39.1,39.1,0,0,0,5.3-.821c.076.324.151.638.205.951Zm-16.21,7.457a3.438,3.438,0,0,1-2.734.1c-1.243-.7-1.751-3.447-1.081-7.133.076-.421.173-.854.281-1.3a40.2,40.2,0,0,0,5.263.767,41.85,41.85,0,0,0,3.361,4.139c-.249.238-.5.476-.746.681a14.1,14.1,0,0,1-4.377,2.745Zm-5.63-10.656a13.931,13.931,0,0,1-4.561-2.421,3.434,3.434,0,0,1-1.448-2.367c0-1.416,2.161-3.242,5.663-4.463.421-.151.875-.292,1.34-.432a40.35,40.35,0,0,0,1.9,4.939,40.393,40.393,0,0,0-1.924,5c-.335-.1-.659-.195-.962-.3Zm1.88-12.86c-.735-3.75-.238-6.581.983-7.295s4.2.324,7.251,3.026l.584.54a40.027,40.027,0,0,0-3.329,4.128,39.4,39.4,0,0,0-5.22.811c-.1-.411-.184-.811-.27-1.21Zm16.859,4.161c-.389-.659-.778-1.318-1.189-1.956,1.254.162,2.442.367,3.566.627A34.2,34.2,0,0,1,211,223.416c-.346-.67-.724-1.351-1.081-2.032ZM203,214.695a34.706,34.706,0,0,1,2.3,2.777h-4.615c.756-1.005,1.535-1.934,2.313-2.777Zm-6.916,6.7c-.389.67-.756,1.351-1.081,2.021A34.1,34.1,0,0,1,193.773,220c1.081-.249,2.3-.443,3.545-.605-.411.638-.811,1.3-1.2,1.967Zm1.232,9.986c-1.275-.151-2.486-.346-3.6-.584.346-1.081.767-2.269,1.264-3.447.346.67.724,1.351,1.081,2.021h0c.389.681.8,1.351,1.221,2.01Zm5.728,4.733c-.789-.854-1.578-1.8-2.345-2.821h4.647C204.58,234.32,203.813,235.271,203.045,236.114Zm7.976-8.829a35.454,35.454,0,0,1,1.308,3.437c-1.135.259-2.356.465-3.642.627.4-.648.8-1.308,1.2-1.988s.778-1.383,1.135-2.075Zm-2.6,1.254c-.605,1.081-1.232,2.064-1.87,3.015-1.167.086-2.367.13-3.588.13s-2.4,0-3.534-.108c-.659-.973-1.308-1.988-1.913-3.037h0c-.605-1.081-1.156-2.1-1.664-3.145.508-1.081,1.081-2.161,1.664-3.145h0c.605-1.081,1.232-2.064,1.891-3.026,1.167-.086,2.356-.13,3.555-.13h0a29.823,29.823,0,0,1,3.566.14c.648.951,1.286,1.956,1.891,3s1.167,2.161,1.675,3.134c-.508,1.081-1.081,2.107-1.675,3.166Zm3.447-18.653c1.308.757,1.816,3.8.994,7.792a3.353,3.353,0,0,1-.173.778,41.091,41.091,0,0,0-5.23-.821,38.081,38.081,0,0,0-3.307-4.128c.3-.281.605-.562.908-.821,2.885-2.507,5.576-3.5,6.808-2.8Zm-8.9,11.974a3.491,3.491,0,1,1-3.48,3.5v-.011A3.491,3.491,0,0,1,202.959,221.86Z" transform="translate(14.262 15.588)"/><path class="c" d="M296.889,159.929c-16.48-4-31.535-.205-33.631,8.451s9.553,18.923,26.034,22.911,31.524.205,33.62-8.462S313.359,163.917,296.889,159.929Zm-9.5,13.174a6.736,6.736,0,0,1-1.254,1.913,7.044,7.044,0,0,1-1.816,1.416,6.413,6.413,0,0,1-2.615.821,10.628,10.628,0,0,1-3.3-.357l-2.939-.713-1.826,3.977-3.426-.832,6.83-14.946,6.592,1.6a5.565,5.565,0,0,1,3.955,2.6A4.984,4.984,0,0,1,287.39,173.1Zm1.545,6.376-3.4-.821,6.862-15,3.4.832-1.826,3.966,3.037.735c1.9.465,3.134,1.081,3.7,1.956a3.459,3.459,0,0,1-.141,3.4l-3.242,6.97-3.447-.832,3.037-6.646a1.924,1.924,0,0,0,.227-1.643,2.464,2.464,0,0,0-1.6-.854l-2.723-.67Zm11.488,7.2L297,185.844l6.862-14.989,6.592,1.6a5.61,5.61,0,0,1,3.955,2.6,5.026,5.026,0,0,1-.238,4.561,6.992,6.992,0,0,1-1.254,1.913,7.288,7.288,0,0,1-1.826,1.416,6.376,6.376,0,0,1-2.615.821,10.629,10.629,0,0,1-3.3-.357l-2.929-.713Z" transform="translate(20.684 11.586)"/><path class="c" d="M280.759,167.462l-2.334-.562-2.875,6.257,2.075.508a5.227,5.227,0,0,0,3.242,0,4.324,4.324,0,0,0,2.01-2.28,2.919,2.919,0,0,0,.292-2.55A3.6,3.6,0,0,0,280.759,167.462Z" transform="translate(21.696 12.277)"/><path class="c" d="M305.618,179.633a4.261,4.261,0,0,0,2.01-2.28,2.9,2.9,0,0,0,.3-2.55,3.61,3.61,0,0,0-2.442-1.351l-2.324-.562-2.875,6.257,2.075.508A5.191,5.191,0,0,0,305.618,179.633Z" transform="translate(23.692 12.76)"/><path class="a" d="M283.135,165.529l-6.592-1.6-6.862,14.989,3.426.832,1.826-3.977,2.939.713a10.631,10.631,0,0,0,3.3.357,6.413,6.413,0,0,0,2.615-.821,7.042,7.042,0,0,0,1.816-1.416,6.736,6.736,0,0,0,1.254-1.913,4.98,4.98,0,0,0,.238-4.56A5.565,5.565,0,0,0,283.135,165.529Zm.238,6.073a4.324,4.324,0,0,1-2.01,2.28,5.227,5.227,0,0,1-3.242,0l-2.075-.508,2.875-6.257,2.334.562a3.6,3.6,0,0,1,2.432,1.351,2.92,2.92,0,0,1-.313,2.54Z" transform="translate(21.222 12.037)"/><path class="a" d="M293.867,171.151a2.464,2.464,0,0,1,1.6.854,1.925,1.925,0,0,1-.227,1.643l-3.037,6.625,3.447.832,3.242-6.97a3.459,3.459,0,0,0,.14-3.4c-.562-.843-1.794-1.491-3.7-1.956l-3.037-.735,1.826-3.966-3.4-.832-6.862,15,3.4.821,3.934-8.646Z" transform="translate(22.366 11.982)"/><path class="a" d="M302.611,182.478a10.629,10.629,0,0,0,3.3.357,6.376,6.376,0,0,0,2.615-.821,7.288,7.288,0,0,0,1.826-1.416,6.99,6.99,0,0,0,1.254-1.913,5.026,5.026,0,0,0,.238-4.561,5.61,5.61,0,0,0-3.955-2.6l-6.592-1.6-6.862,14.989,3.426.832,1.826-3.977Zm1.081-9.348,2.324.562a3.61,3.61,0,0,1,2.442,1.351,2.9,2.9,0,0,1-.3,2.55,4.258,4.258,0,0,1-2.01,2.28,5.2,5.2,0,0,1-3.242,0l-2.075-.508Z" transform="translate(23.219 12.521)"/><path class="c" d="M135.945,197.933c3.588,3.847,5.717,8.084,3.426,13.714a15.7,15.7,0,0,1-9.823,8.818,9.35,9.35,0,0,0,1.4-14.125,7.132,7.132,0,0,0,5.166-6.862A7.359,7.359,0,0,0,135.945,197.933ZM123.43,186.11a54.6,54.6,0,0,0,6.484,6.3,6.982,6.982,0,0,0-.962-.076,7.143,7.143,0,0,0-7.143,7.143h0a7.074,7.074,0,0,0,1.264,4.053,9.338,9.338,0,0,0-6.03,15.281,14.265,14.265,0,0,1-6.2-17.442c3.674-9.024,13.541-5.468,12.6-15.259Zm.778,21.268a5.4,5.4,0,1,1-5.4,5.4,5.4,5.4,0,0,1,5.4-5.4h0Zm4.766-12.039a4.15,4.15,0,1,1-4.15,4.15v-.011a4.139,4.139,0,0,1,4.139-4.139h.011Z" transform="translate(8.329 13.827)"/></g></g></svg>