<svg xmlns="http://www.w3.org/2000/svg" width="52.445" height="42.604" viewBox="0 0 52.445 42.604"><defs><style>.a{fill:#e5e6f0;}</style></defs><path class="a" d="M52.441,7.038a21.173,21.173,0,0,1-6.174,1.691A10.818,10.818,0,0,0,51,2.778,21.651,21.651,0,0,1,44.17,5.389,10.772,10.772,0,0,0,25.838,15.2,30.546,30.546,0,0,1,3.666,3.957,10.769,10.769,0,0,0,6.992,18.314a10.818,10.818,0,0,1-4.876-1.34v.134a10.757,10.757,0,0,0,8.632,10.549,10.785,10.785,0,0,1-2.838.38,11.229,11.229,0,0,1-2.028-.193,10.79,10.79,0,0,0,10.047,7.475A21.582,21.582,0,0,1,2.565,39.925,21.5,21.5,0,0,1,0,39.771a30.432,30.432,0,0,0,16.5,4.834c19.783,0,30.61-16.395,30.61-30.61,0-.472-.01-.931-.029-1.393a21.594,21.594,0,0,0,5.364-5.561Z" transform="translate(0.004 -2.001)"/></svg>